<svg width="51" height="51" viewBox="0 0 51 51" fill="none" xmlns="http://www.w3.org/2000/svg">
<path fill-rule="evenodd" clip-rule="evenodd" d="M25.6322 38.3925L25.7719 12.524L33.074 12.5476C35.3245 12.5549 37.3116 13.0588 39.0356 14.0593C40.7595 15.0598 42.0843 16.4796 43.0101 18.3185C43.9478 20.1575 44.4161 22.2674 44.4151 24.6482L44.4061 26.3005C44.393 28.7404 43.9076 30.8768 42.9502 32.7097C42.0045 34.5426 40.6526 35.9477 38.8943 36.9251C37.1478 37.9026 35.1138 38.3994 32.7922 38.4156L25.6322 38.3925ZM29.0585 35.6141L29.168 15.3422L33.1477 15.355C35.6823 15.3869 37.6321 16.2224 38.9973 17.8614C40.3743 19.4885 41.0549 21.7709 41.039 24.7083L41.0308 26.2185C41.0145 29.2388 40.2676 31.5639 38.7901 33.1937C37.3244 34.8235 35.2768 35.6342 32.6473 35.6257L29.0585 35.6141Z" fill="#1E98C9"/>
<path fill-rule="evenodd" clip-rule="evenodd" d="M25.2796 12.5193L25.1399 38.3878L17.8378 38.3642C15.5873 38.3569 13.6002 37.853 11.8762 36.8524C10.1523 35.8519 8.82748 34.4322 7.90168 32.5932C6.96404 30.7543 6.49573 28.6444 6.49674 26.2636L6.50567 24.6113C6.51885 22.1713 7.00417 20.0349 7.96164 18.202C8.90727 16.3692 10.2592 14.964 12.0175 13.9866C13.764 13.0091 15.798 12.5123 18.1196 12.4961L25.2796 12.5193Z" fill="#1F5B30"/>
</svg>
