<svg width="36" height="36" viewBox="0 0 36 36" fill="none" xmlns="http://www.w3.org/2000/svg">
<path d="M8.97712 27.2721L27.3677 9.07915L32.5144 14.2592C34.1005 15.8557 35.1493 17.6171 35.6609 19.5436C36.1724 21.4701 36.1053 23.4108 35.4596 25.3657C34.8222 27.3291 33.6615 29.1522 31.9773 30.8349L30.8026 31.997C29.068 33.713 27.2141 34.8805 25.2411 35.4995C23.2764 36.1268 21.3268 36.1644 19.3924 35.6123C17.4663 35.0685 15.6767 33.9816 14.0236 32.3514L8.97712 27.2721ZM27.7763 13.4733L13.3645 27.7303L15.894 30.2762C17.7472 32.1415 19.7683 33.0162 21.9572 32.9001C24.1544 32.7924 26.3267 31.6765 28.4739 29.5523L29.5475 28.4902C31.6358 26.4244 32.7684 24.3293 32.9453 22.205C33.139 20.0807 32.351 18.1112 30.5813 16.2965L27.7763 13.4733Z" fill="#2E2E2E"/>
<path d="M27.0229 8.72786L8.6323 26.9209L3.48564 21.7408C1.89948 20.1443 0.850652 18.3829 0.339147 16.4564C-0.172359 14.5299 -0.10527 12.5892 0.540416 10.6342C1.17775 8.67089 2.33852 6.84783 4.02271 5.16508L5.19738 4.00302C6.93202 2.28702 8.78587 1.11953 10.7589 0.500547C12.7236 -0.126834 14.6732 -0.16445 16.6076 0.387701C18.5337 0.931449 20.3233 2.01843 21.9764 3.64863L27.0229 8.72786ZM8.2237 22.5267L22.6356 8.26972L20.106 5.72381C18.2528 3.85848 16.2317 2.98385 14.0428 3.09991C11.8456 3.20758 9.67334 4.3235 7.52609 6.44768L6.45247 7.50977C4.36416 9.57564 3.23156 11.6707 3.05468 13.795C2.86103 15.9193 3.64904 17.8888 5.41871 19.7035L8.2237 22.5267Z" fill="#2E2E2E"/>
</svg>
