<svg width="168" height="168" viewBox="0 0 168 168" fill="none" xmlns="http://www.w3.org/2000/svg">
<circle cx="84" cy="84" r="84" fill="#F5D1D1"/>
<path d="M84.7871 119.211L84.5529 48.7902L104.431 48.681C110.557 48.6474 115.978 49.9719 120.695 52.6545C125.411 55.3371 129.051 59.1703 131.615 64.1541C134.211 69.1377 135.536 74.8699 135.59 81.3508L135.605 85.8488C135.627 92.491 134.356 98.3181 131.794 103.33C129.263 108.342 125.616 112.199 120.853 114.901C116.122 117.604 110.597 119.004 104.278 119.104L84.7871 119.211ZM93.8643 56.381L94.0478 111.566L103.817 111.513C110.975 111.473 116.53 109.218 120.481 104.746C124.464 100.275 126.442 93.9279 126.415 85.7058L126.401 81.5947C126.375 73.5982 124.468 67.4017 120.681 63.005C116.926 58.5759 111.598 56.3481 104.698 56.3215L93.8643 56.381Z" fill="#2E2E2E"/>
<path d="M83.2129 48.7894L83.4471 119.21L63.5694 119.319C57.4432 119.353 52.0219 118.028 47.3055 115.346C42.589 112.663 38.9489 108.83 36.3851 103.846C33.789 98.8623 32.4641 93.1301 32.4103 86.6493L32.3953 82.1513C32.3733 75.509 33.6436 69.682 36.2064 64.67C38.737 59.6582 42.3838 55.8011 47.1468 53.0987C51.8776 50.3964 57.4027 48.9957 63.7221 48.8965L83.2129 48.7894ZM74.1357 111.619L73.9522 56.4339L64.1826 56.4875C57.0247 56.5268 51.4702 58.7822 47.5192 63.2536C43.5358 67.7252 41.5579 74.0721 41.5852 82.2943L41.5989 86.4053C41.6255 94.4018 43.5323 100.598 47.3194 104.995C51.0744 109.424 56.402 111.652 63.3021 111.679L74.1357 111.619Z" fill="#2E2E2E"/>
<path d="M55.94 145.719C56.6234 146.069 57.2012 146.507 57.6736 147.032C58.1298 147.563 58.4618 148.165 58.6697 148.838L57.827 149.376C57.5816 148.698 57.276 148.136 56.9102 147.693C56.5282 147.254 56.0702 146.898 55.5363 146.624C54.8956 146.296 54.3067 146.156 53.7695 146.204C53.2162 146.257 52.8136 146.53 52.5618 147.021C52.3921 147.352 52.3648 147.655 52.4801 147.93C52.5793 148.21 52.7883 148.499 53.1073 148.797C53.4156 149.09 53.7905 149.438 54.2319 149.839C54.7264 150.295 55.1274 150.71 55.4349 151.083C55.7262 151.462 55.9049 151.836 55.9709 152.207C56.0208 152.584 55.9335 152.991 55.709 153.428C55.4353 153.962 55.0719 154.342 54.6188 154.569C54.155 154.789 53.6416 154.87 53.0787 154.811C52.4996 154.756 51.9165 154.579 51.3292 154.278C50.6885 153.949 50.1745 153.558 49.7873 153.103C49.4002 152.648 49.1448 152.16 49.0213 151.638L49.9276 151.172C50.0407 151.662 50.2698 152.096 50.6148 152.475C50.9437 152.86 51.3537 153.178 51.8449 153.43C52.1866 153.605 52.5369 153.724 52.8959 153.786C53.2493 153.86 53.5823 153.842 53.8947 153.732C54.1909 153.628 54.4321 153.394 54.6182 153.031C54.8482 152.583 54.8414 152.188 54.598 151.847C54.3546 151.507 53.9457 151.068 53.3716 150.531C52.8291 150.037 52.3668 149.584 51.9846 149.172C51.6023 148.761 51.3569 148.345 51.2485 147.925C51.1346 147.516 51.2062 147.061 51.4636 146.559C51.8632 145.779 52.4689 145.321 53.2807 145.185C54.0925 145.048 54.9789 145.226 55.94 145.719Z" fill="#2E2E2E"/>
<path d="M36.3248 132.419C36.4686 132.479 36.7309 132.591 37.1117 132.755C37.4925 132.918 37.8599 133.18 38.2139 133.538C38.5848 133.914 38.8026 134.348 38.8673 134.841C38.9319 135.333 38.7508 135.79 38.3237 136.212L33.5452 140.928L34.4556 141.851L33.7638 142.533L32.8535 141.611L30.5987 143.836L29.7389 142.965L31.9936 140.74L30.4763 139.203L31.1681 138.52L32.6854 140.057L37.2205 135.581C37.4513 135.319 37.5506 135.053 37.5185 134.781C37.4694 134.509 37.3436 134.271 37.1413 134.066C36.9053 133.827 36.6561 133.651 36.3938 133.539C36.1145 133.427 35.9325 133.362 35.8478 133.345L36.3248 132.419Z" fill="#2E2E2E"/>
<path d="M25.6766 116.649C26.0568 117.465 26.1953 118.288 26.092 119.117C25.9887 119.946 25.6861 120.703 25.1841 121.387C24.6822 122.071 24.0288 122.601 23.2239 122.976C22.4299 123.346 21.6176 123.506 20.7868 123.457C19.951 123.396 19.1877 123.136 18.497 122.677C17.7955 122.223 17.2546 121.588 16.8743 120.772C16.4839 119.935 16.3429 119.107 16.4513 118.288C16.5597 117.47 16.8645 116.732 17.3657 116.075C17.851 115.412 18.4852 114.898 19.2683 114.533C19.4423 114.451 19.5916 114.388 19.7164 114.344L23.1081 121.62C23.6919 121.282 24.1546 120.854 24.4962 120.337C24.827 119.826 25.0274 119.275 25.0972 118.687C25.1562 118.103 25.0589 117.54 24.8054 116.996C24.5469 116.441 24.1621 115.985 23.6512 115.627C23.1402 115.27 22.6082 115.094 22.0551 115.1L21.8674 114.016C22.3618 113.997 22.8584 114.097 23.357 114.315C23.8398 114.527 24.2851 114.829 24.6931 115.221C25.0902 115.619 25.418 116.095 25.6766 116.649ZM22.3239 122.025L19.3961 115.744C18.8073 116.071 18.3475 116.491 18.0167 117.003C17.675 117.519 17.4801 118.067 17.432 118.646C17.373 119.229 17.4728 119.798 17.7314 120.353C17.99 120.908 18.3617 121.35 18.8465 121.68C19.3205 122.015 19.8652 122.218 20.4807 122.289C21.0802 122.353 21.6946 122.266 22.3239 122.025Z" fill="#2E2E2E"/>
<path d="M18.5084 91.408C18.5337 92.1876 18.3525 92.8959 17.9649 93.5327C17.5769 94.1576 17.0889 94.6597 16.5008 95.0389L22.2758 94.852L22.3154 96.0753L9.11029 96.5027L9.07478 95.4053L10.8918 95.3465C10.2921 94.9937 9.80244 94.5173 9.42283 93.9172C9.03084 93.3056 8.8232 92.6399 8.79992 91.9203C8.77896 91.2727 8.89767 90.6745 9.15606 90.1259C9.40246 89.5776 9.74713 89.0982 10.1901 88.6877C10.6326 88.2651 11.1443 87.9364 11.725 87.7015C12.2937 87.467 12.8899 87.3396 13.5136 87.3195C14.3891 87.2911 15.2045 87.4448 15.9598 87.7806C16.7026 88.1047 17.3064 88.5834 17.7712 89.2167C18.2355 89.838 18.4813 90.5685 18.5084 91.408ZM17.4401 91.7848C17.4179 91.1011 17.219 90.5193 16.8433 90.0392C16.4552 89.5475 15.9688 89.173 15.3842 88.9158C14.7996 88.6586 14.1894 88.5402 13.5537 88.5608C12.8821 88.5825 12.2635 88.7586 11.6979 89.0891C11.1322 89.4196 10.6841 89.8543 10.3533 90.3933C10.0222 90.9203 9.86732 91.5136 9.88867 92.1732C9.90186 92.581 10.0238 93.0093 10.2544 93.4581C10.4727 93.8953 10.7673 94.2819 11.1384 94.6181C11.4971 94.9427 11.8873 95.1281 12.309 95.1745L15.1875 95.0814C15.8382 94.7842 16.382 94.3343 16.8187 93.7319C17.2554 93.1295 17.4626 92.4804 17.4401 91.7848Z" fill="#2E2E2E"/>
<path d="M23.0613 61.7333L22.617 62.8738L17.7363 60.9724C15.7572 60.2013 14.5062 60.4867 13.9835 61.8285C13.8136 62.2646 13.7599 62.733 13.8224 63.2338C13.8736 63.7303 14.0262 64.2148 14.28 64.6871C14.527 65.144 14.8648 65.5331 15.2933 65.8546L20.6437 67.939L20.1993 69.0795L7.95567 64.3096L8.4 63.1691L13.8845 65.3057C13.371 64.7065 13.044 64.0253 12.9034 63.2622C12.756 62.4836 12.8195 61.742 13.0939 61.0376C13.3553 60.3667 13.7265 59.8932 14.2076 59.617C14.6775 59.3364 15.2324 59.2178 15.8724 59.261C16.5055 59.2887 17.1966 59.4485 17.9458 59.7404L23.0613 61.7333Z" fill="#2E2E2E"/>
<path d="M34.5958 43.3396C33.9738 43.9901 33.2577 44.4177 32.4474 44.6225C31.6372 44.8272 30.8223 44.82 30.0026 44.6006C29.1829 44.3812 28.4522 43.9647 27.8104 43.3509C27.1773 42.7454 26.7332 42.0466 26.4778 41.2545C26.2308 40.4537 26.1959 39.6482 26.373 38.8379C26.5415 38.0194 26.9368 37.2849 27.5588 36.6345C28.1975 35.9667 28.9177 35.5348 29.7197 35.3387C30.5216 35.1425 31.3198 35.1587 32.1142 35.3871C32.9082 35.5986 33.6175 36.0029 34.2419 36.6001C34.3806 36.7328 34.4936 36.8491 34.5807 36.949L29.032 42.7508C29.5591 43.1719 30.1254 43.4478 30.7309 43.5786C31.3278 43.7011 31.9131 43.688 32.4869 43.5394C33.0521 43.3825 33.542 43.0873 33.9567 42.6537C34.3797 42.2114 34.6651 41.6873 34.8128 41.0814C34.9606 40.4755 34.9311 39.916 34.7245 39.4029L35.6666 38.8344C35.8635 39.2883 35.951 39.7872 35.9292 40.3308C35.907 40.8575 35.7871 41.3822 35.5696 41.9048C35.3434 42.4191 35.0188 42.8973 34.5958 43.3396ZM28.3697 42.1672L33.1595 37.1589C32.6406 36.7291 32.0828 36.453 31.4859 36.3305C30.8804 36.1997 30.2994 36.2169 29.7429 36.3821C29.1778 36.539 28.6837 36.8386 28.2607 37.2809C27.8377 37.7231 27.5604 38.2301 27.4289 38.8017C27.2887 39.365 27.2974 39.9462 27.4551 40.5452C27.6123 41.1274 27.9172 41.668 28.3697 42.1672Z" fill="#2E2E2E"/>
<path d="M58.2316 26.1315L57.112 26.6263L54.9949 21.8352C54.5487 20.8254 54.07 20.1579 53.559 19.8327C53.0541 19.4916 52.4888 19.4594 51.8632 19.7358C51.4241 19.9298 51.0391 20.2312 50.708 20.6399C50.3721 21.0376 50.1219 21.4958 49.9576 22.0145C49.7993 22.5173 49.7531 23.0363 49.819 23.5713L52.1398 28.8234L51.0202 29.3181L47.2298 20.7402L48.2506 20.2892L49.1091 22.232C49.1729 21.456 49.4492 20.7304 49.938 20.0552C50.4268 19.38 51.0554 18.8727 51.8237 18.5332C52.4603 18.2519 53.0331 18.1824 53.5421 18.3248C54.0463 18.4563 54.4989 18.768 54.8999 19.2598C55.307 19.7359 55.6779 20.3526 56.0126 21.1099L58.2316 26.1315Z" fill="#2E2E2E"/>
<path d="M94.2574 21.9576C93.5041 21.8082 92.8283 21.5457 92.2299 21.1701C91.6457 20.785 91.1613 20.2975 90.7767 19.7074L91.4392 18.958C91.8614 19.5433 92.3092 19.9991 92.7828 20.3255C93.2704 20.6424 93.8085 20.8593 94.3971 20.976C95.1033 21.1161 95.7081 21.0892 96.2114 20.8955C96.7288 20.6922 97.0413 20.3199 97.1486 19.7785C97.221 19.4136 97.1641 19.1148 96.9778 18.8821C96.8056 18.64 96.5252 18.4192 96.1366 18.2198C95.7597 18.0227 95.304 17.7916 94.7693 17.5265C94.1687 17.2239 93.6693 16.9352 93.2712 16.6605C92.8871 16.3763 92.6125 16.0649 92.4472 15.7263C92.296 15.3783 92.2683 14.9629 92.364 14.4803C92.4807 13.8918 92.7259 13.4266 93.0996 13.0848C93.485 12.7453 93.9565 12.5268 94.5141 12.4295C95.0858 12.3226 95.6953 12.3334 96.3427 12.4618C97.049 12.6019 97.6506 12.8375 98.1477 13.1685C98.6448 13.4996 99.0244 13.899 99.2863 14.3669L98.5426 15.0636C98.2995 14.6239 97.96 14.269 97.5242 13.9991C97.1025 13.7197 96.621 13.5263 96.0795 13.4189C95.7028 13.3442 95.3333 13.326 94.971 13.3642C94.6109 13.3907 94.2958 13.4994 94.0254 13.6905C93.7692 13.8721 93.6014 14.163 93.522 14.5632C93.4239 15.0576 93.5387 15.4351 93.8662 15.6958C94.1938 15.9565 94.7073 16.2664 95.4068 16.6253C96.0639 16.9514 96.6328 17.26 97.1133 17.551C97.5939 17.8421 97.9439 18.1745 98.1634 18.5484C98.3852 18.9104 98.4412 19.3681 98.3315 19.9213C98.161 20.7806 97.7043 21.3873 96.9611 21.7415C96.218 22.0957 95.3168 22.1677 94.2574 21.9576Z" fill="#2E2E2E"/>
<path d="M117.932 17.605L118.778 16.0163L119.859 16.5919L119.012 18.1805L117.932 17.605ZM109.718 29.7692C109.368 29.583 109.065 29.3605 108.809 29.1015C108.542 28.8369 108.351 28.5314 108.237 28.1848L109.151 27.7334C109.241 27.9719 109.373 28.1713 109.546 28.3314C109.719 28.4916 109.906 28.6253 110.107 28.7325C110.478 28.9299 110.893 28.9675 111.352 28.8452C111.806 28.7335 112.146 28.4658 112.372 28.0422L117.01 19.3365L118.09 19.9121L113.486 28.5541C113.226 29.0413 112.878 29.4135 112.442 29.6706C112.006 29.9277 111.546 30.0635 111.063 30.0778C110.579 30.0921 110.131 29.9893 109.718 29.7692Z" fill="#2E2E2E"/>
<path d="M139.487 52.2256C139.133 51.5854 138.967 50.9022 138.989 50.1761C139.023 49.4442 139.207 48.7864 139.542 48.2028L137.952 49.0841L137.42 48.1238L148.912 41.7538L149.506 42.8243L144.499 45.5992C145.259 45.6582 145.95 45.8518 146.571 46.18C147.202 46.5023 147.707 47.0045 148.085 47.6868C148.405 48.264 148.569 48.8452 148.578 49.4303C148.592 50.0259 148.485 50.5998 148.256 51.1521C148.038 51.6985 147.718 52.1982 147.297 52.6512C146.886 53.0984 146.413 53.4703 145.878 53.767C145.112 54.1916 144.312 54.4082 143.48 54.4167C142.654 54.4357 141.883 54.259 141.169 53.8864C140.455 53.5139 139.895 52.9603 139.487 52.2256ZM140.292 51.4502C140.624 52.0484 141.072 52.4859 141.637 52.7627C142.208 53.05 142.813 53.1882 143.452 53.1771C144.101 53.1603 144.709 52.9948 145.276 52.6807C145.853 52.3607 146.324 51.9352 146.688 51.404C147.058 50.8834 147.278 50.3154 147.349 49.7001C147.419 49.0847 147.294 48.4884 146.974 47.9112C146.62 47.271 146.101 46.8176 145.418 46.5512C144.741 46.2953 144.057 46.1874 143.366 46.2275L140.815 47.6411C140.467 47.903 140.221 48.2653 140.08 48.7278C139.939 49.1904 139.889 49.6706 139.932 50.1683C139.974 50.666 140.095 51.0933 140.292 51.4502Z" fill="#2E2E2E"/>
<path d="M156.885 76.2135C156.738 75.4104 156.404 74.733 155.883 74.1812C155.364 73.6412 154.712 73.3036 153.926 73.1684L148.161 74.0469L147.977 72.8369L157.248 71.4242L157.421 72.563L155.197 72.902C155.898 73.1229 156.49 73.4636 156.973 73.9241C157.458 74.3964 157.769 74.9256 157.907 75.5115C157.937 75.6283 157.958 75.7283 157.971 75.8113C157.983 75.8944 157.989 75.9724 157.988 76.0454L156.885 76.2135Z" fill="#2E2E2E"/>
<path d="M148.468 96.1816C148.639 95.298 149.01 94.5509 149.581 93.9404C150.149 93.3416 150.83 92.9174 151.624 92.6679C152.43 92.4207 153.257 92.3793 154.105 92.5437C154.965 92.7104 155.717 93.0578 156.36 93.5858C157.013 94.1279 157.491 94.7829 157.795 95.5506C158.108 96.3325 158.18 97.1593 158.011 98.031C157.839 98.9146 157.464 99.6546 156.884 100.251C156.313 100.862 155.625 101.291 154.819 101.538C154.023 101.799 153.195 101.846 152.335 101.68C151.486 101.515 150.735 101.168 150.08 100.638C149.436 100.11 148.964 99.4558 148.663 98.6762C148.36 97.9085 148.295 97.0769 148.468 96.1816ZM153.851 93.7596C153.168 93.6272 152.515 93.6534 151.893 93.8383C151.28 94.0373 150.759 94.3581 150.331 94.8008C149.915 95.2457 149.647 95.7745 149.528 96.3871C149.41 96.9997 149.466 97.5912 149.698 98.1617C149.93 98.7322 150.298 99.2254 150.805 99.6413C151.311 100.057 151.905 100.331 152.589 100.464C153.272 100.596 153.926 100.564 154.551 100.367C155.176 100.171 155.702 99.851 156.13 99.4084C156.558 98.9658 156.832 98.4381 156.95 97.8255C157.067 97.2247 157.003 96.6379 156.76 96.0651C156.528 95.4946 156.159 95.0014 155.653 94.5855C155.147 94.1696 154.546 93.8943 153.851 93.7596Z" fill="#2E2E2E"/>
<path d="M143.02 132.408L142.308 133.381L137.123 124.587L137.751 123.73L142.671 124.901L140.058 120.579L140.685 119.722L150.634 122.009L149.932 122.967L141.362 120.931L143.754 124.824L147.812 125.832L147.164 126.718L144.007 125.88L145.749 128.65L145.111 129.521L142.914 125.972L138.48 124.867L143.02 132.408Z" fill="#2E2E2E"/>
<path d="M114.147 144.606L115.222 144.021L117.725 148.623C118.253 149.592 118.784 150.218 119.32 150.501C119.852 150.799 120.418 150.785 121.019 150.458C121.44 150.229 121.799 149.897 122.096 149.462C122.398 149.038 122.609 148.561 122.731 148.031C122.847 147.516 122.851 146.995 122.741 146.468L119.997 141.424L121.072 140.839L125.554 149.077L124.573 149.61L123.558 147.744C123.559 148.523 123.343 149.269 122.911 149.982C122.479 150.695 121.894 151.252 121.157 151.653C120.545 151.986 119.98 152.102 119.461 152.002C118.948 151.912 118.471 151.639 118.031 151.182C117.586 150.741 117.166 150.156 116.77 149.429L114.147 144.606Z" fill="#2E2E2E"/>
</svg>
